<svg xmlns="http://www.w3.org/2000/svg" viewBox="0 0 512 512" role="img" aria-label="Open-Meteo Weather Plugin">
  <defs>
    <linearGradient id="bg" x1="0" y1="0" x2="1" y2="1">
      <stop offset="0%" stop-color="#1b2233"/>
      <stop offset="100%" stop-color="#0a0d12"/>
    </linearGradient>
    <linearGradient id="sun" x1="0" y1="0" x2="0" y2="1">
      <stop offset="0%" stop-color="#ffd43b"/>
      <stop offset="100%" stop-color="#fab005"/>
    </linearGradient>
  </defs>
  <rect width="512" height="512" rx="96" fill="url(#bg)"/>
  <circle cx="200" cy="184" r="64" fill="url(#sun)"/>
  <g stroke="#ffd43b" stroke-width="10" stroke-linecap="round">
    <line x1="200" y1="80" x2="200" y2="108"/>
    <line x1="120" y1="184" x2="148" y2="184"/>
    <line x1="124" y1="108" x2="146" y2="130"/>
    <line x1="276" y1="108" x2="254" y2="130"/>
  </g>
  <path d="M188 296 a48 48 0 0 1 96 -10 a40 40 0 0 1 56 50 H172 a40 40 0 0 1 16 -40 Z"
        fill="#e9ecef" stroke="#adb5bd" stroke-width="4"/>
  <g fill="#22b8cf">
    <path d="M196 372 q -8 16 0 28 q 8 -12 0 -28 Z"/>
    <path d="M236 372 q -8 16 0 28 q 8 -12 0 -28 Z"/>
    <path d="M276 372 q -8 16 0 28 q 8 -12 0 -28 Z"/>
    <path d="M316 372 q -8 16 0 28 q 8 -12 0 -28 Z"/>
    <path d="M216 412 q -8 16 0 28 q 8 -12 0 -28 Z"/>
    <path d="M256 412 q -8 16 0 28 q 8 -12 0 -28 Z"/>
    <path d="M296 412 q -8 16 0 28 q 8 -12 0 -28 Z"/>
  </g>
</svg>
